#!OML:ASF X:\für Bonn\!DataBase\2005_08_12_Daniel\c3d\Daniel.ASF
:FULLY-SPECIFIED
:DEGREES
337
root 21.6911 17.3164 -16.6083 -188.282 8.52808 177.275
lowerback 10.9309 -1.77477 -8.70361
upperback 4.49488 -2.66115 -3.77334
thorax -1.14708 -1.10363 1.24413
lowerneck 5.07559 0.420923 -8.21229
upperneck 28.665 5.70016 -2.72882
head 8.09328 3.09374 0.984202
rclavicle -1.18277e-014 -1.11319e-014
rhumerus -54.1286 -38.3407 -50.2639
rradius 11.3224
rwrist 51.3672
rhand -13.6568 16.1508
rfingers 7.12502
rthumb 12.46 -13.4577
lclavicle -1.18277e-014 -1.11319e-014
lhumerus -32.0345 -3.20134 92.1042
lradius 72.7241
lwrist 0.681426
lhand -9.16457 -10.0472
lfingers 7.12502
lthumb 16.788 19.247
rfemur -24.4302 16.9231 4.06248
rtibia 30.8079
rfoot -25.4531 -14.3747
rtoes -10.1285
lfemur 7.87326 -7.86639 -24.4586
ltibia 37.7686
lfoot -24.7324 -13.3078
ltoes -2.50793
338
root 21.8033 17.2599 -16.7672 -188.493 7.9157 177.202
lowerback 11.0822 -1.82546 -8.82903
upperback 4.60923 -2.73002 -3.72529
thorax -1.09234 -1.13618 1.37276
lowerneck 4.90907 0.311702 -8.10193
upperneck 28.8038 5.59586 -2.75886
head 8.17473 3.04944 0.958688
rclavicle 4.07509e-015 4.29375e-014
rhumerus -52.9411 -36.6448 -52.3064
rradius 11.612
rwrist 49.7234
rhand -13.3783 16.0615
rfingers 7.12502
rthumb 12.7285 -13.5305
lclavicle 4.07509e-015 4.29375e-014
lhumerus -32.0258 -3.57103 92.0812
lradius 73.1874
lwrist 1.18439
lhand -9.22074 -10.0585
lfingers 7.12502
lthumb 16.7339 19.2403
rfemur -24.8831 19.355 2.66199
rtibia 29.9509
rfoot -26.7844 -16.2577
rtoes -10.322
lfemur 9.00475 -8.17027 -24.2946
ltibia 37.3563
lfoot -25.4631 -13.6945
ltoes -2.32913
339
root 21.9187 17.196 -16.9275 -188.709 7.336 177.137
lowerback 11.238 -1.8665 -8.98331
upperback 4.71106 -2.79221 -3.66274
thorax -1.05067 -1.16602 1.53214
lowerneck 4.81801 0.211728 -7.99393
upperneck 28.8381 5.47594 -2.8044
head 8.20689 2.99807 0.922655
rclavicle 1.35174e-014 -4.77083e-015
rhumerus -51.5847 -34.4151 -54.8393
rradius 12.0012
rwrist 47.4158
rhand -13.1906 15.9778
rfingers 7.12502
rthumb 12.9095 -13.6029
lclavicle 1.35174e-014 -4.77083e-015
lhumerus -32.0516 -3.92804 92.0305
lradius 73.5748
lwrist 1.62104
lhand -9.28614 -10.007
lfingers 7.12502
lthumb 16.671 19.2971
rfemur -25.3757 21.7786 1.22634
rtibia 29.1769
rfoot -28.0781 -18.2113
rtoes -10.2087
lfemur 10.1174 -8.50456 -24.1061
ltibia 37.023
lfoot -26.2109 -14.0941
ltoes -2.20643
340
root 22.0335 17.1218 -17.0868 -188.891 6.76033 177.066
lowerback 11.3827 -1.92004 -9.11964
upperback 4.81843 -2.86696 -3.60506
thorax -0.996501 -1.20237 1.67755
lowerneck 4.52288 0.121788 -7.94907
upperneck 28.9894 5.38768 -2.79116
head 8.31233 2.95045 0.925703
rclavicle -5.52621e-014 -9.85972e-014
rhumerus -50.4441 -32.351 -57.1085
rradius 12.423
rwrist 45.2577
rhand -13.0577 15.8747
rfingers 7.12502
rthumb 13.0376 -13.6978
lclavicle -5.52621e-014 -9.85972e-014
lhumerus -31.9645 -4.21096 91.9307
lradius 73.9221
lwrist 1.96251
lhand -9.21663 -9.81895
lfingers 7.12502
lthumb 16.7379 19.4795
rfemur -25.945 24.0794 -0.255774
rtibia 28.503
rfoot -29.2686 -20.1577
rtoes -9.12495
lfemur 11.1602 -8.77004 -23.8669
ltibia 36.7261
lfoot -26.9452 -14.6222
ltoes -2.03521
341
root 22.1526 17.0466 -17.2478 -189.124 6.21895 176.967
lowerback 11.5688 -1.92582 -9.30148
upperback 4.91758 -2.8867 -3.55181
thorax -0.975228 -1.20941 1.83909
lowerneck 4.31725 0.0123709 -7.8723
upperneck 29.0936 5.26539 -2.80263
head 8.38772 2.89307 0.909986
rclavicle -2.47487e-014 -3.18055e-015
rhumerus -49.7064 -30.7488 -58.7575
rradius 12.8076
rwrist 43.5885
rhand -12.9846 15.7395
rfingers 7.12502
rthumb 13.108 -13.8285
lclavicle -2.47487e-014 -3.18055e-015
lhumerus -32.0059 -4.4913 91.8641
lradius 74.1933
lwrist 2.11127
lhand -9.19882 -9.7446
lfingers 7.12502
lthumb 16.755 19.5524
rfemur -26.4181 25.8118 -1.59781
rtibia 27.9411
rfoot -30.2087 -21.6726
rtoes -7.86215
lfemur 12.2354 -8.99426 -23.6299
ltibia 36.4452
lfoot -27.6909 -15.173
ltoes -2.02854
342
root 22.2727 16.9759 -17.4105 -189.291 5.68983 176.88
lowerback 11.709 -1.95115 -9.43332
upperback 4.98309 -2.92943 -3.52589
thorax -0.966865 -1.22751 1.94644
lowerneck 4.09045 -0.0756351 -7.7957
upperneck 29.2031 5.1706 -2.80211
head 8.46778 2.8486 0.899981
rclavicle 1.59028e-014 -9.54166e-015
rhumerus -49.2161 -29.3661 -60.083
rradius 13.1678
rwrist 42.2654
rhand -12.9714 15.8703
rfingers 7.12502
rthumb 13.1208 -13.6969
lclavicle 1.59028e-014 -9.54166e-015
lhumerus -32.0915 -4.82494 91.7024
lradius 74.3376
lwrist 2.22708
lhand -9.38082 -9.69179
lfingers 7.12502
lthumb 16.5798 19.62
rfemur -26.9068 27.0646 -2.82607
rtibia 27.5116
rfoot -31.1214 -22.8639
rtoes -7.0089
lfemur 13.2527 -9.24474 -23.3681
ltibia 36.122
lfoot -28.3035 -15.7111
ltoes -1.89284
343
root 22.3936 16.9067 -17.5716 -189.457 5.10891 176.783
lowerback 11.8961 -2.00037 -9.5813
upperback 5.04293 -3.0109 -3.50407
thorax -0.984614 -1.26318 2.06456
lowerneck 3.81233 -0.147542 -7.75575
upperneck 29.3514 5.10241 -2.7701
head 8.56924 2.81363 0.91005
rclavicle -1.09332e-015 7.95139e-015
rhumerus -48.7758 -27.9439 -61.3996
rradius 13.5691
rwrist 40.8782
rhand -13.0084 15.916
rfingers 7.12502
rthumb 13.0851 -13.6536
lclavicle -1.09332e-015 7.95139e-015
lhumerus -32.1811 -5.07144 91.4739
lradius 74.3759
lwrist 2.19991
lhand -9.56664 -9.74348
lfingers 7.12502
lthumb 16.4009 19.5831
rfemur -27.272 27.6341 -3.82277
rtibia 27.2149
rfoot -31.7613 -23.6681
rtoes -6.65753
lfemur 14.2594 -9.52802 -23.0731
ltibia 35.7417
lfoot -28.8262 -16.3625
ltoes -1.85337
344
root 22.5185 16.8405 -17.7382 -189.641 4.5883 176.698
lowerback 12.042 -2.03382 -9.68861
upperback 5.12523 -3.05614 -3.52522
thorax -0.964245 -1.27985 2.10952
lowerneck 3.55471 -0.233416 -7.62598
upperneck 29.4806 5.01638 -2.78898
head 8.66286 2.77563 0.885367
rclavicle -6.49032e-014 -3.18055e-015
rhumerus -48.7032 -27.5103 -61.8347
rradius 13.7835
rwrist 40.567
rhand -13.0487 16.1758
rfingers 7.12502
rthumb 13.0463 -13.3962
lclavicle -6.49032e-014 -3.18055e-015
lhumerus -32.2785 -5.28134 91.1689
lradius 74.2464
lwrist 1.97118
lhand -9.97609 -10.0857
lfingers 7.12502
lthumb 16.0067 19.273
rfemur -27.5682 27.781 -4.60577
rtibia 27.0316
rfoot -32.1454 -24.1192
rtoes -6.75587
lfemur 15.3143 -9.70049 -22.6926
ltibia 35.2836
lfoot -29.1919 -17.1275
ltoes -1.63506
345
root 22.6479 16.775 -17.9056 -189.79 4.05697 176.58
lowerback 12.1533 -2.05771 -9.88229
upperback 5.18733 -3.09897 -3.51625
thorax -0.938729 -1.29834 2.23223
lowerneck 3.31068 -0.2897 -7.63347
upperneck 29.6025 4.95365 -2.71435
head 8.74779 2.74372 0.91655
rclavicle -2.51463e-014 1.59028e-014
rhumerus -48.6725 -27.2069 -62.0464
rradius 13.9283
rwrist 40.3433
rhand -13.1315 16.5659
rfingers 7.12502
rthumb 12.9665 -13.0112
lclavicle -2.51463e-014 1.59028e-014
lhumerus -32.3643 -5.26753 90.9281
lradius 73.9271
lwrist 1.45022
lhand -10.4737 -10.4499
lfingers 7.12502
lthumb 15.5275 18.9466
rfemur -27.8107 27.4076 -5.22711
rtibia 26.9304
rfoot -32.2383 -24.1732
rtoes -7.81755
lfemur 16.3302 -9.854 -22.2747
ltibia 34.7835
lfoot -29.2823 -18.0359
ltoes -1.13639
346
root 22.7785 16.7146 -18.0746 -189.93 3.50241 176.461
lowerback 12.3057 -2.08442 -10.0166
upperback 5.20656 -3.14943 -3.57386
thorax -0.98794 -1.31423 2.25633
lowerneck 3.18285 -0.362603 -7.53736
upperneck 29.7383 4.86628 -2.63878
head 8.81825 2.71835 0.927255
rclavicle -6.95746e-016 -9.54166e-015
rhumerus -49.0162 -27.7183 -61.5813
rradius 13.943
rwrist 40.9334
rhand -13.2322 16.9356
rfingers 7.12502
rthumb 12.8694 -12.6477
lclavicle -6.95746e-016 -9.54166e-015
lhumerus -32.5269 -5.15115 90.5777
lradius 73.3944
lwrist 0.829621
lhand -10.969 -10.9575
lfingers 7.12502
lthumb 15.0503 18.4754
rfemur -27.9657 26.5986 -5.66456
rtibia 26.8936
rfoot -32.1368 -23.8662
rtoes -9.097
lfemur 17.3456 -10.0077 -21.8171
ltibia 34.2153
lfoot -29.1366 -18.9684
ltoes -0.603523
347
root 22.9121 16.6558 -18.2472 -190.047 2.94704 176.284
lowerback 12.349 -2.11213 -10.2218
upperback 5.28352 -3.18378 -3.61781
thorax -0.911586 -1.32809 2.32582
lowerneck 2.91531 -0.416353 -7.60939
upperneck 29.9078 4.80038 -2.4799
head 8.92227 2.68537 0.999583
rclavicle 3.89618e-014 1.08139e-013
rhumerus -49.1354 -27.9356 -61.4487
rradius 14.0242
rwrist 40.8675
rhand -13.3564 17.2263
rfingers 7.12502
rthumb 12.7496 -12.3645
lclavicle 3.89618e-014 1.08139e-013
lhumerus -32.5329 -4.98838 90.2182
lradius 72.5964
lwrist 0.112966
lhand -11.6321 -11.4488
lfingers 7.12502
lthumb 14.4115 18.0309
rfemur -28.0743 25.5962 -6.06477
rtibia 26.9037
rfoot -31.957 -23.2466
rtoes -10.5063
lfemur 18.3274 -10.1608 -21.3802
ltibia 33.629
lfoot -28.8031 -19.9816
ltoes -0.033938
348
root 23.0488 16.5982 -18.4247 -190.146 2.38952 176.043
lowerback 12.3794 -2.12847 -10.4804
upperback 5.32058 -3.21204 -3.7
thorax -0.869335 -1.33673 2.38409
lowerneck 2.74343 -0.484357 -7.5729
upperneck 30.0923 4.75019 -2.42847
head 9.01963 2.67024 1.01687
rclavicle -9.64106e-015 -7.79236e-014
rhumerus -49.2342 -27.9612 -61.5223
rradius 14.1148
rwrist 40.3688
rhand -13.4701 17.3462
rfingers 7.12502
rthumb 12.64 -12.2513
lclavicle -9.64106e-015 -7.79236e-014
lhumerus -32.6175 -4.7547 89.8104
lradius 71.6296
lwrist -0.562205
lhand -12.3546 -11.8377
lfingers 7.12502
lthumb 13.7152 17.6904
rfemur -28.0952 24.3647 -6.41739
rtibia 26.8854
rfoot -31.702 -22.3857
rtoes -11.8143
lfemur 19.278 -10.2822 -20.9895
ltibia 33.0462
lfoot -28.3587 -20.973
ltoes 0.654613
349
root 23.1876 16.5378 -18.6026 -190.199 1.83448 175.925
lowerback 12.4014 -2.14071 -10.611
upperback 5.3241 -3.23361 -3.73767
thorax -0.866504 -1.34333 2.41891
lowerneck 2.6042 -0.562413 -7.62878
upperneck 30.3374 4.69037 -2.29761
head 9.13154 2.65246 1.07806
rclavicle 9.44227e-015 -3.18055e-014
rhumerus -49.3132 -27.8448 -61.7179
rradius 14.2069
rwrist 39.4404
rhand -13.5942 17.3322
rfingers 7.12502
rthumb 12.5204 -12.2727
lclavicle 9.44227e-015 -3.18055e-014
lhumerus -32.7201 -4.3935 89.4229
lradius 70.4128
lwrist -1.33088
lhand -12.8899 -12.0363
lfingers 7.12502
lthumb 13.1993 17.5258
rfemur -28.0753 23.1193 -6.61343
rtibia 26.7951
rfoot -31.3988 -21.5347
rtoes -12.6834
lfemur 20.1398 -10.4447 -20.4282
ltibia 32.5256
lfoot -27.8804 -21.9533
ltoes 1.04825
350
root 23.3267 16.4775 -18.7839 -190.258 1.33808 175.895
lowerback 12.372 -2.14417 -10.5842
upperback 5.37393 -3.21257 -3.7818
thorax -0.80353 -1.3298 2.35311
lowerneck 2.50505 -0.635848 -7.71334
upperneck 30.5108 4.60563 -2.12883
head 9.20928 2.62286 1.15287
rclavicle -2.11706e-014 -2.06736e-014
rhumerus -49.4437 -28.182 -61.6108
rradius 14.2171
rwrist 38.9067
rhand -13.6647 17.1843
rfingers 7.12502
rthumb 12.4524 -12.4247
lclavicle -2.11706e-014 -2.06736e-014
lhumerus -32.7668 -4.03209 88.9433
lradius 68.999
lwrist -2.08044
lhand -13.2862 -12.1383
lfingers 7.12502
lthumb 12.8173 17.4482
rfemur -27.9239 21.9633 -6.67801
rtibia 26.6014
rfoot -31.0746 -20.5229
rtoes -12.9079
lfemur 20.9696 -10.6816 -19.8492
ltibia 32.0935
lfoot -27.3538 -22.8011
ltoes 1.59434
351
root 23.4666 16.4132 -18.9706 -190.274 0.906109 175.85
lowerback 12.2899 -2.11541 -10.5412
upperback 5.37643 -3.15216 -3.83122
thorax -0.768898 -1.29712 2.2678
lowerneck 2.53499 -0.700046 -7.83903
upperneck 30.6901 4.53468 -1.91588
head 9.26508 2.60892 1.24954
rclavicle -2.68359e-015 9.54166e-015
rhumerus -49.6531 -28.6116 -61.3813
rradius 14.1444
rwrist 38.4415
rhand -13.7924 16.9602
rfingers 7.12502
rthumb 12.3293 -12.6563
lclavicle -2.68359e-015 9.54166e-015
lhumerus -32.8432 -3.54378 88.4438
lradius 67.3977
lwrist -2.80436
lhand -13.395 -11.983
lfingers 7.12502
lthumb 12.7124 17.6101
rfemur -27.7524 20.7658 -6.71799
rtibia 26.3055
rfoot -30.4196 -19.3793
rtoes -12.3226
lfemur 21.7044 -10.8807 -19.2997
ltibia 31.8081
lfoot -26.9984 -23.4356
ltoes 1.61906
